<svg id="Lag_1" version="1.1" xmlns="http://www.w3.org/2000/svg" xmlns:xlink="http://www.w3.org/1999/xlink"
     x="0px" y="0px" viewBox="0 0 31.4 70.6" style="enable-background: new 0 0 31.4 70.6" xml:space="preserve">
  <g>
    <g id="Polygon_2" transform="translate(22.839 30.266) rotate(-156)">
      <path class="st0" d="M4-19.5l-15.7,0c-0.5,0-0.9-0.2-1.1-0.6c-0.2-0.4-0.2-0.9,0-1.3L-5-35.3c0.2-0.4,0.7-0.7,1.1-0.7 s0.9,0.2,1.1,0.7l7.9,13.8c0.2,0.4,0.2,0.9,0,1.3C4.9-19.8,4.5-19.5,4-19.5z"/>
      <path class="st0" d="M-3.8-35.5c-0.2,0-0.5,0-0.8,0.4l-7.9,13.8c-0.2,0.4-0.1,0.7,0,0.9c0.1,0.1,0.3,0.4,0.7,0.4L4-20 c0.5,0,0.7-0.3,0.7-0.4c0.1-0.1,0.2-0.5,0-0.9l-7.9-13.8C-3.3-35.5-3.7-35.5-3.8-35.5 M-3.8-36.4c0.6,0,1.2,0.3,1.5,0.9l7.9,13.8 c0.7,1.2-0.2,2.6-1.5,2.6l-15.7,0c-1.3,0-2.2-1.4-1.5-2.6l7.9-13.8C-5-36.1-4.4-36.4-3.8-36.4z"/>
    </g>
    <path id="Path_114" class="st1" d="M4.6,7.6c0,0,16.3,9.9,19.8,20.5S18.7,50,18.7,50"/>
  </g>
  <style>
    .st0 {
      fill: #83cdf0;
    }
    .st1 {
      fill: none;
      stroke: #83cdf0;
      stroke-width: 5;
      stroke-linecap: round;
      stroke-miterlimit: 4;
    }
  </style>
</svg>
