  <svg xmlns="http://www.w3.org/2000/svg" xmlns:xlink="http://www.w3.org/1999/xlink"  viewBox="0 0 103.551 143.455">
    <defs>
      <clipPath id="clip-path">
        <rect
          id="Rectangle_189"
          data-name="Rectangle 189"
          width="103.551"
          height="143.455"
          fill="#8d8d8d"
          stroke="#8d8d8d"
          stroke-linecap="round"
          stroke-width="1"
        />
      </clipPath>
    </defs>
    <g id="Group_243" data-name="Group 243" clip-path="url(#clip-path)">
      <path
        id="Path_41"
        data-name="Path 41"
        d="M108.949,78.445v64.992c0,4.848-.727,5.5-5.4,5.5q-45.127-.04-90.253-.031c-5.421,0-5.949-.527-5.949-5.945V13.631c0-5.314.792-6.162,5.907-6.163q44.8-.016,89.608,0c5.329,0,6.086.808,6.086,6.315q0,32.331,0,64.664m-100.571,0q0,31.839.007,63.678c0,4.935.8,5.729,5.607,5.729q44,.01,88,0c5.183,0,5.927-.772,5.927-6.118q.01-63.349,0-126.7c0-5.54-.53-6.084-5.825-6.085q-44-.01-87.994,0c-5.215,0-5.714.511-5.716,5.818q-.014,31.837,0,63.674"
        transform="translate(-6.374 -6.469)"
        fill="#8d8d8d"
        stroke="#8d8d8d"
        stroke-linecap="round"
        stroke-width="1"
      />
      <path
        id="Path_42"
        data-name="Path 42"
        d="M108.949,78.445v64.992c0,4.848-.727,5.5-5.4,5.5q-45.127-.04-90.253-.031c-5.421,0-5.949-.527-5.949-5.945V13.631c0-5.314.792-6.162,5.907-6.163q44.8-.016,89.608,0c5.329,0,6.086.808,6.086,6.315Q108.953,46.112,108.949,78.445Zm-100.571,0q0,31.839.007,63.678c0,4.935.8,5.729,5.607,5.729q44,.01,88,0c5.183,0,5.927-.772,5.927-6.118q.01-63.349,0-126.7c0-5.54-.53-6.084-5.825-6.085q-44-.01-87.994,0c-5.215,0-5.714.511-5.716,5.818Q8.367,46.607,8.378,78.445Z"
        transform="translate(-6.374 -6.469)"
        fill="#8d8d8d"
        stroke="#8d8d8d"
        stroke-linecap="round"
        stroke-miterlimit="10"
        stroke-width="3"
      />
      <path
        id="Path_43"
        data-name="Path 43"
        d="M223.093,160.6c0,7.874.032,15.748-.007,23.622-.085,17.454-13.3,31.292-29.883,31.338-16.869.049-30.248-13.672-30.32-31.224q-.1-23.786,0-47.574c.077-17.52,13.509-31.255,30.367-31.187,16.536.068,29.771,13.982,29.839,31.4.029,7.874.005,15.748.005,23.624m-1.581-.085c0-7.879.025-15.757-.005-23.636-.068-16.759-12.483-29.683-28.5-29.711-15.981-.028-28.481,12.914-28.545,29.669q-.086,23.8,0,47.6c.062,16.728,12.555,29.549,28.66,29.531,15.813-.017,28.278-12.944,28.38-29.488.049-7.988.008-15.975.009-23.964"
        transform="translate(-141.206 -91.554)"
        fill="#8d8d8d"
        stroke="#8d8d8d"
        stroke-linecap="round"
        stroke-width="1"
      />
      <path
        id="Path_44"
        data-name="Path 44"
        d="M253.943,505.073c1.18,0,2.368.09,3.537-.017,2.845-.263,4.292.909,4.118,3.9a3.361,3.361,0,0,0,2.089,3.338,21.554,21.554,0,0,1-.305,38.014,3.057,3.057,0,0,0-1.8,3.145c.137,3-1.448,4.063-4.2,3.96-2.464-.093-4.933-.052-7.4-.056-2.1,0-3.29-1.075-3.221-3.189.068-2.14-.855-3.248-2.657-4.314a21.505,21.505,0,0,1-.36-37.025c1.927-1.189,3.173-2.368,3.031-4.82-.116-1.984.983-3.007,2.99-2.958,1.393.033,2.789.007,4.184.007v.013m.319,42.827c6.772,1.424,11.921-.711,15.489-6.923a19.035,19.035,0,0,0-6.707-26.07q-.6-.357-1.231-.667c-1.621-.792-3.193-1.44-2.954-3.687.272-2.513-.976-3.307-3.254-3.11a33.457,33.457,0,0,1-3.863.024c-1.63-.048-2.452.737-2.3,2.371.21,2.336-.866,3.5-2.942,4.39a17.152,17.152,0,0,0-9.39,10.282c-2.269,6.151-1.45,11.979,2.068,17.508,3.151,4.952,7.484,6.881,13.149,5.9a11.552,11.552,0,0,1,1.93-.015"
        transform="translate(-202.359 -437.939)"
        fill="#8d8d8d"
        stroke="#8d8d8d"
        stroke-linecap="round"
        stroke-width="1"
      />
      <path
        id="Path_45"
        data-name="Path 45"
        d="M252.526,218.3a21.331,21.331,0,0,1-21.109-21.184c-.082-11.786,9.488-21.728,20.968-21.776,11.445-.047,21.2,9.941,21.111,21.629-.086,11.731-9.505,21.314-20.97,21.331m-.434-1.578c12.526-.5,18.765-8.347,19.741-19.574.863-9.932-7.945-19.908-18.815-19.757-12.756.177-18.952,8.708-20.029,19.2-1.012,9.8,9.108,19.881,19.1,20.132"
        transform="translate(-200.677 -152.049)"
        fill="#8d8d8d"
        stroke="#8d8d8d"
        stroke-linecap="round"
        stroke-width="1"
      />
      <path
        id="Path_46"
        data-name="Path 46"
        d="M261.871,230.081c-10-.25-20.116-10.335-19.106-20.134,1.079-10.491,7.276-19.021,20.029-19.2,10.871-.15,19.679,9.827,18.815,19.757-.976,11.228-7.215,19.076-19.741,19.574m.267-2.036a17.655,17.655,0,0,0,17.54-17.618c.027-9.9-7.971-18.154-17.517-18.079-9.606.074-17.529,8.389-17.373,18.223a17.622,17.622,0,0,0,17.351,17.482"
        transform="translate(-210.458 -165.411)"
        fill="#8d8d8d"
        stroke="#8d8d8d"
        stroke-linecap="round"
        stroke-width="1"
      />
      <path
        id="Path_47"
        data-name="Path 47"
        d="M357.07,299.831c2.4.5,4.727-1.266,7.607-.174-2.667,2.124-5.587,2.384-8.209,3.248-1.817.6-4.306,2.452-5.5.854-.9-1.2,1.741-3.106,2.7-4.762.688-1.189,2.072-2.291-.387-3.05-.3-.092-.559-.672-.626-1.063-.114-.669.416-1,.959-1.061,1.9-.2,3.888-.643,5.666.272.886.454.13,1.326-.2,1.982-.614,1.222-1.975,2.027-2.007,3.747"
        transform="translate(-304.188 -254.547)"
        fill="#8d8d8d"
        stroke="#8d8d8d"
        stroke-linecap="round"
        stroke-width="1"
      />
    </g>
  </svg>