  <svg id="Lag_2" xmlns="http://www.w3.org/2000/svg" viewBox="0 0 199.11 120">
    <g id="Lag_1-2">
      <g>
        <path
          class="cls-2"
          d="M140.14,0c19.5,0,39,0,58.5,0,.36,0,.46,.06,.46,.45-.01,39.69-.01,79.38,0,119.07,0,.41-.09,.48-.49,.48-66.04-.01-132.08-.01-198.12,0-.44,0-.5-.11-.5-.51,.01-18.9,0-37.81,0-56.71,.15,.03,.09,.15,.1,.23,.07,1.57,.21,3.13,.42,4.68,.92,6.94,2.95,13.55,6.22,19.75,6.35,12.04,15.68,21,28,26.81,8,3.78,16.47,5.58,25.31,5.59,12.17,.02,24.35,0,36.52,0,14.54,0,29.07-.02,43.61-.03,2.42,0,4.82-.21,7.21-.54,6.44-.9,12.58-2.78,18.39-5.69,7.72-3.86,14.33-9.12,19.77-15.81,7.6-9.34,12.03-20.01,13.21-31.99,.48-4.86,.37-9.73-.34-14.57-.94-6.35-2.83-12.39-5.73-18.12-4.53-8.95-10.89-16.34-19.1-22.12C164.52,4.58,154.43,.99,143.35,.19c-1.07-.08-2.14-.12-3.21-.18Z"
        />
        <path
          class="cls-2"
          d="M0,57.12C0,38.23,.01,19.34,0,.46,0,.08,.08,0,.46,0,19.96,.01,39.46,0,58.96,0c-.41,.03-.82,.07-1.23,.08-5.56,.18-10.99,1.15-16.28,2.88-9.73,3.19-18.1,8.52-25.13,15.96-4.53,4.79-8.16,10.19-10.9,16.18C2.26,42.02,.49,49.28,.11,56.88c0,.09,.03,.2-.1,.25Z"
        />
        <path
          class="cls-2"
          d="M99.53,1.27c13.3,0,26.6-.04,39.9,.01,11.92,.05,22.83,3.47,32.68,10.16,8.63,5.86,15.22,13.52,19.82,22.87,2.5,5.09,4.19,10.44,5.12,16.04,.74,4.5,.97,9.03,.66,13.57-.52,7.52-2.41,14.68-5.7,21.47-2.75,5.67-6.31,10.78-10.71,15.3-8.1,8.31-17.79,13.81-29.11,16.44-4.35,1.01-8.75,1.48-13.21,1.48-26.23,0-52.47,.02-78.7,0-13.78-.01-26.13-4.26-36.89-12.86-10.2-8.15-16.94-18.61-20.27-31.24-.95-3.61-1.51-7.3-1.73-11.03-.58-10,1.24-19.53,5.52-28.59,2.63-5.56,6.07-10.58,10.29-15.06,6.61-7.01,14.46-12.12,23.55-15.31,4.03-1.41,8.17-2.35,12.42-2.84,2.33-.27,4.67-.4,7.02-.4,13.12,0,26.23,0,39.35,0ZM21.85,90.22c.03,.11,.03,.15,.05,.17,.09,.12,.18,.23,.28,.35,5.09,6.19,11.3,10.89,18.67,14.05,6.08,2.61,12.44,3.9,19.05,3.9,26.33,0,52.67,0,79,0,4.74,0,9.39-.62,13.94-1.97,9.47-2.81,17.35-8.04,23.73-15.57,.24-.28,.51-.54,.68-.93h-.69c-13.63,0-27.26,0-40.89,0-.33,0-.53-.1-.74-.36-1.36-1.75-2.74-3.48-4.12-5.21-5.51-6.96-11.02-13.91-16.53-20.86-.29-.37-.59-.73-.88-1.1-.15,.11-.14,.24-.16,.35-.52,2.29-1.19,4.53-2.08,6.71-1.69,4.12-4.06,7.77-7.35,10.81-3.85,3.55-8.4,5.81-13.37,7.28-5.79,1.71-11.73,2.35-17.74,2.37-16.71,.05-33.41,.02-50.12,.02h-.73Zm1.02-61.9c.29,0,.45,0,.62,0,18.85,0,37.71,0,56.56,.03,4.22,0,8.42,.35,12.58,1.12,4,.74,7.87,1.88,11.43,3.92,5.14,2.94,8.43,7.26,9.75,13.04,.25,1.11,.41,2.23,.55,3.41,.12-.11,.19-.17,.26-.24,1.51-1.57,3.02-3.14,4.53-4.72,5.17-5.39,10.34-10.78,15.5-16.17,.27-.28,.55-.4,.95-.4,13.05,.01,26.1,0,39.15,0h1.39c-.03-.24-.19-.34-.31-.47-4.64-5.27-10.14-9.39-16.53-12.31-5.28-2.41-10.82-3.82-16.61-4.24-3.17-.23-6.35-.15-9.52-.15-24.69,0-49.39,0-74.08,.05-7.13,.02-13.91,1.72-20.33,4.82-4.9,2.36-9.26,5.48-13.13,9.29-.94,.93-1.85,1.88-2.76,3ZM187.91,61.46c0-8.37-1.38-14.94-4.16-21.22-1.39-3.15-3.12-6.11-5.13-8.91-.26-.36-.4-.34-.68-.03-.65,.7-1.34,1.37-2.01,2.05-7.54,7.54-15.07,15.08-22.62,22.6-.34,.34-.31,.52-.02,.86,3.78,4.46,7.54,8.94,11.3,13.42,4.78,5.67,9.56,11.35,14.32,17.03,.3,.36,.42,.29,.65-.05,5.51-8.25,8.29-17.33,8.35-25.74Zm-148.92,6.99c.24,0,.42,0,.6,0,9.21,0,18.42,0,27.63,0,1.18,0,2.35-.05,3.51-.23,2.87-.43,5.32-1.59,6.94-4.11,1.56-2.43,2.5-5.1,2.8-7.96,.29-2.76-1-4.84-3.53-5.99-1.52-.69-3.12-.98-4.77-.98-8.57-.01-17.13,0-25.7-.01-.34,0-.51,.09-.64,.43-1.82,5.04-3.66,10.08-5.5,15.12-.44,1.22-.88,2.44-1.35,3.73Z"
        />
        <path
          class="cls-1"
          d="M21.85,90.22h.73c16.71,0,33.41,.03,50.12-.02,6-.02,11.95-.66,17.74-2.37,4.98-1.47,9.53-3.73,13.37-7.28,3.29-3.03,5.66-6.69,7.35-10.81,.89-2.18,1.56-4.42,2.08-6.71,.02-.11,.02-.23,.16-.35,.29,.36,.59,.73,.88,1.1,5.51,6.95,11.02,13.91,16.53,20.86,1.37,1.74,2.76,3.47,4.12,5.21,.21,.26,.41,.36,.74,.36,13.63,0,27.26,0,40.89,0h.69c-.17,.39-.45,.65-.68,.93-6.37,7.52-14.26,12.76-23.73,15.57-4.55,1.35-9.2,1.97-13.94,1.97-26.33-.01-52.67,0-79,0-6.62,0-12.97-1.29-19.05-3.9-7.37-3.16-13.58-7.86-18.67-14.05-.09-.11-.19-.23-.28-.35-.02-.02-.02-.06-.05-.17Z"
        />
        <path
          class="cls-1"
          d="M22.87,28.32c.91-1.12,1.82-2.07,2.76-3,3.87-3.81,8.23-6.93,13.13-9.29,6.42-3.1,13.2-4.81,20.33-4.82,24.69-.05,49.39-.04,74.08-.05,3.17,0,6.35-.08,9.52,.15,5.79,.41,11.33,1.83,16.61,4.24,6.39,2.92,11.89,7.04,16.53,12.31,.11,.13,.27,.23,.31,.47h-1.39c-13.05,0-26.1,0-39.15,0-.4,0-.68,.12-.95,.4-5.16,5.39-10.33,10.78-15.5,16.17-1.51,1.57-3.02,3.14-4.53,4.72-.07,.07-.14,.13-.26,.24-.15-1.18-.3-2.31-.55-3.41-1.33-5.79-4.61-10.11-9.75-13.04-3.56-2.04-7.43-3.18-11.43-3.92-4.16-.77-8.36-1.11-12.58-1.12-18.85-.03-37.71-.02-56.56-.03-.16,0-.32,0-.62,0Z"
        />
        <path
          class="cls-1"
          d="M187.91,61.46c-.05,8.41-2.83,17.49-8.35,25.74-.23,.34-.35,.42-.65,.05-4.77-5.68-9.54-11.35-14.32-17.03-3.77-4.47-7.53-8.95-11.3-13.42-.29-.34-.32-.52,.02-.86,7.55-7.53,15.08-15.07,22.62-22.6,.68-.68,1.36-1.35,2.01-2.05,.28-.3,.42-.33,.68,.03,2.01,2.8,3.74,5.76,5.13,8.91,2.77,6.28,4.16,12.85,4.16,21.22Z"
        />
        <path
          class="cls-1"
          d="M38.98,68.44c.46-1.28,.9-2.51,1.35-3.73,1.83-5.04,3.68-10.07,5.5-15.12,.13-.35,.29-.43,.64-.43,8.57,0,17.13,0,25.7,.01,1.65,0,3.26,.29,4.77,.98,2.53,1.15,3.82,3.23,3.53,5.99-.3,2.86-1.25,5.53-2.8,7.96-1.61,2.52-4.07,3.67-6.94,4.11-1.16,.18-2.33,.23-3.51,.23-9.21,0-18.42,0-27.63,0-.18,0-.36,0-.6,0Z"
        />
      </g>
    </g>
	<style>
	.cls-1 {
	  fill: #f8001c;
	}
	.cls-2 {
	  fill: #fefefe;
	}
	</style>
  </svg>