  <svg xmlns="http://www.w3.org/2000/svg" xmlns:xlink="http://www.w3.org/1999/xlink" viewBox="0 0 51.748 22.43">
    <defs>
      <clipPath id="clip-path">
        <rect id="Rectangle_126" data-name="Rectangle 126" width="51.748" height="22.43" fill="none" />
      </clipPath>
    </defs>
    <g id="Group_196" data-name="Group 196" clip-path="url(#clip-path)">
      <path
        id="Path_34"
        data-name="Path 34"
        d="M9.311,10.265a7.7,7.7,0,0,1,1.1-1,25.4,25.4,0,0,1,4.979-3.191,1.321,1.321,0,0,0,.386-.245.544.544,0,0,0,.052-.74A.593.593,0,0,0,15,4.923,23.532,23.532,0,0,0,12.052,6.59,26.9,26.9,0,0,0,2.33,18.456a19.812,19.812,0,0,0-1.109,3.4.616.616,0,0,1-.459.554c-.5.113-.854-.262-.74-.81A18.3,18.3,0,0,1,.8,18.944,21.376,21.376,0,0,1,1.961,16.3a.608.608,0,0,0-.029-.672A9.549,9.549,0,0,1,.535,9.7,9.547,9.547,0,0,1,5.3,2.2,15.3,15.3,0,0,1,11.1.358a48.734,48.734,0,0,1,10-.2.623.623,0,0,1,.511,1.056,21.8,21.8,0,0,0-3.642,8.534,17.656,17.656,0,0,1-1.277,4.106,8.175,8.175,0,0,1-5.452,4.286,12.766,12.766,0,0,1-4.659.332,16.1,16.1,0,0,1-1.8-.332c-.693-.147-.856-.508-.534-1.152a25.3,25.3,0,0,1,3.044-4.663,1.793,1.793,0,0,1,1.225-.667,13.956,13.956,0,0,1,5.206.116c.461.1.776-.059.852-.415s-.136-.643-.586-.754a14.563,14.563,0,0,0-4.327-.3c-.089.005-.178.013-.268.014-.019,0-.037-.026-.083-.062ZM8.179,8.076c.427-.365.761-.663,1.111-.942a.641.641,0,0,0,.241-.416c.13-.693.266-1.386.4-2.079.081-.43-.091-.74-.441-.808a.621.621,0,0,0-.736.559c-.12.538-.235,1.078-.329,1.622a12.679,12.679,0,0,0-.243,2.063ZM4.961,11.532c.324-.386.618-.737.913-1.087a.327.327,0,0,0,.05-.256c-.021-.32-.036-.64-.062-.96a.6.6,0,0,0-.586-.595.574.574,0,0,0-.612.566,7.8,7.8,0,0,0,.3,2.332Z"
        transform="translate(0 0)"
        fill="#19a95d"
      />
      <path
        id="Path_35"
        data-name="Path 35"
        d="M2.666,14.808c.512-.882,1.046-1.7,1.615-2.488a.761.761,0,0,0,.041-.665,8.931,8.931,0,0,1-.214-1.87c0-.3.1-.506.426-.521s.459.187.476.481a6.976,6.976,0,0,0,.084,1.113c.015.069-.017.174.085.186a.229.229,0,0,0,.157-.089A27.619,27.619,0,0,1,7.507,8.609a.649.649,0,0,0,.14-.466,24.362,24.362,0,0,1,.535-3.224c.074-.331.236-.531.579-.457.369.08.362.366.3.671a20.957,20.957,0,0,0-.415,2.295c.134.068.183-.029.246-.081a31.128,31.128,0,0,1,4.754-3.267.556.556,0,0,1,.647-.025.409.409,0,0,1,.147.449c-.039.194-.2.285-.36.373a29.093,29.093,0,0,0-3.907,2.6,28.484,28.484,0,0,0-2.791,2.535c-.1.1-.18.208-.332.384.232-.025.376-.039.521-.056a13.922,13.922,0,0,1,4.749.225c.025.005.049.017.074.022.3.067.5.237.433.565s-.344.379-.638.309a12.792,12.792,0,0,0-3.6-.3,14.04,14.04,0,0,0-2.288.3.678.678,0,0,0-.42.243,26.026,26.026,0,0,0-4.791,9.146c-.077.272-.146.546-.2.822-.061.3-.24.467-.54.41a.426.426,0,0,1-.335-.559,15.894,15.894,0,0,1,.757-2.622,20.673,20.673,0,0,1,1.2-2.752.644.644,0,0,0-.035-.735A9.532,9.532,0,0,1,3.91,3.081,12.144,12.144,0,0,1,9.186.678,35.3,35.3,0,0,1,17.732.016C18.784.038,19.837.1,20.889.15c.563.029.735.373.4.824A22.318,22.318,0,0,0,17.606,9.7a16.959,16.959,0,0,1-1.162,3.783,8.073,8.073,0,0,1-5.862,4.433,13.182,13.182,0,0,1-6.073-.137c-.075-.018-.147-.044-.221-.066a.427.427,0,0,1-.329-.558.4.4,0,0,1,.537-.3,16.95,16.95,0,0,0,1.93.357,10.928,10.928,0,0,0,5.84-.814A7.333,7.333,0,0,0,16.3,11.256c.435-1.677.771-3.379,1.314-5.028A20.558,20.558,0,0,1,19.9,1.409c.072-.111.231-.225.154-.363-.062-.113-.234-.055-.358-.061a53.711,53.711,0,0,0-6.164.008A20.811,20.811,0,0,0,6.843,2.364,8.6,8.6,0,0,0,2.53,14.649a1.3,1.3,0,0,0,.138.16Z"
        transform="translate(30.289 0.062)"
        fill="#19a95d"
      />
    </g>
  </svg>