<svg xmlns="http://www.w3.org/2000/svg" viewBox="0 0 362.52 61.61"><defs><style>.cls-1{fill:#13143d;}.cls-2{fill:#40b549;}.cls-3{fill:#7ac255;}.cls-4{fill:#d9ebc7;}.cls-5{fill:#a3d28d;}</style></defs><g id="Lag_2" data-name="Lag 2"><g id="Layer_1" data-name="Layer 1"><path class="cls-1" d="M82,22.53a13.81,13.81,0,0,1,7.14-1.89V33.56H85.82c-3,0-5.33.66-6.86,2s-2.28,3.6-2.28,6.89V60.91H64.47V21.07H76.68v6.64A16.12,16.12,0,0,1,82,22.53Z"/><path class="cls-1" d="M129.08,43.91H101.45a8.32,8.32,0,0,0,2.39,5.68,7.32,7.32,0,0,0,5.18,2,6.42,6.42,0,0,0,6.35-3.86h13a17.88,17.88,0,0,1-3.61,7.07,18.17,18.17,0,0,1-6.53,4.92,21,21,0,0,1-8.78,1.79A21.34,21.34,0,0,1,99,59a17.9,17.9,0,0,1-7.14-7.14A22.06,22.06,0,0,1,89.32,41a22.27,22.27,0,0,1,2.53-10.85A17.5,17.5,0,0,1,99,23a23.13,23.13,0,0,1,20.78-.07,17.34,17.34,0,0,1,7,6.92,21,21,0,0,1,2.53,10.5A31.54,31.54,0,0,1,129.08,43.91ZM116.8,37.13a6.26,6.26,0,0,0-2.14-5,7.88,7.88,0,0,0-5.36-1.86,7.77,7.77,0,0,0-5.17,1.78,7.89,7.89,0,0,0-2.61,5.07Z"/><path class="cls-1" d="M169.77,43.91H142.14a8.32,8.32,0,0,0,2.39,5.68,7.32,7.32,0,0,0,5.18,2,6.42,6.42,0,0,0,6.35-3.86h13a17.88,17.88,0,0,1-3.61,7.07,18.08,18.08,0,0,1-6.53,4.92,21,21,0,0,1-8.78,1.79A21.3,21.3,0,0,1,139.72,59a17.78,17.78,0,0,1-7.14-7.14A22,22,0,0,1,130,41a22.27,22.27,0,0,1,2.53-10.85,17.5,17.5,0,0,1,7.1-7.14,23.13,23.13,0,0,1,20.78-.07,17.34,17.34,0,0,1,7,6.92A21,21,0,0,1,170,40.35,31.62,31.62,0,0,1,169.77,43.91Zm-12.28-6.78a6.26,6.26,0,0,0-2.14-5A7.87,7.87,0,0,0,150,30.28a7.78,7.78,0,0,0-5.18,1.78,8,8,0,0,0-2.61,5.07Z"/><path class="cls-1" d="M208.57,25.17q4.17,4.54,4.18,12.46V60.91H200.61V39.27a8.76,8.76,0,0,0-2.07-6.21,8.12,8.12,0,0,0-11.14,0,8.76,8.76,0,0,0-2.07,6.21V60.91h-12.2V21.07h12.2v5.28a12.9,12.9,0,0,1,5-4.17,15.79,15.79,0,0,1,7.07-1.54Q204.39,20.64,208.57,25.17Z"/><path class="cls-1" d="M235.09,22.21a15.41,15.41,0,0,1,7.36-1.71,16.47,16.47,0,0,1,8.92,2.5,17.23,17.23,0,0,1,6.32,7.14A23.87,23.87,0,0,1,260,40.92a24.09,24.09,0,0,1-2.32,10.81,17.49,17.49,0,0,1-6.32,7.21,16.33,16.33,0,0,1-8.92,2.54,15.4,15.4,0,0,1-7.36-1.68,13,13,0,0,1-4.92-4.46v5.57H218V8.08h12.21V26.71A12.5,12.5,0,0,1,235.09,22.21Zm10,11.53a8.35,8.35,0,0,0-6.25-2.6,8.24,8.24,0,0,0-6.17,2.64A10,10,0,0,0,230.09,41a10,10,0,0,0,2.54,7.21,8.54,8.54,0,0,0,12.39,0,10,10,0,0,0,2.57-7.24A9.87,9.87,0,0,0,245.05,33.74Z"/><path class="cls-1" d="M270.75,59a18.29,18.29,0,0,1-7.35-7.14A21.27,21.27,0,0,1,260.72,41a21.18,21.18,0,0,1,2.71-10.82A18.44,18.44,0,0,1,270.86,23,23.57,23.57,0,0,1,292,23a18.41,18.41,0,0,1,7.42,7.17A21.18,21.18,0,0,1,302.12,41a20.93,20.93,0,0,1-2.74,10.81,18.57,18.57,0,0,1-7.5,7.18,22.35,22.35,0,0,1-10.6,2.5A22,22,0,0,1,270.75,59Zm16.49-10.64q2.46-2.56,2.46-7.35c0-3.19-.79-5.64-2.39-7.36a8.1,8.1,0,0,0-11.81,0q-2.36,2.53-2.36,7.39t2.32,7.35a7.5,7.5,0,0,0,5.82,2.57A7.93,7.93,0,0,0,287.24,48.34Z"/><path class="cls-1" d="M362.52,21.07,351.74,60.91H338.25L332,35.06l-6.5,25.85H312.05L301.2,21.07h12.21L319,49.56l6.72-28.49h12.92l6.78,28.34L351,21.07Z"/><path class="cls-1" d="M27.84,27.15V38H46.49A15.66,15.66,0,0,1,41,45.89a15,15,0,0,1-9.15,2.75Q24,48.64,19.46,44T15,30.93a24.47,24.47,0,0,1,.33-4H.22a37.6,37.6,0,0,0-.22,4,31.87,31.87,0,0,0,3.91,15.9A27.88,27.88,0,0,0,14.82,57.7a32.1,32.1,0,0,0,15.94,3.91,30.66,30.66,0,0,0,13.58-2.92A29.2,29.2,0,0,0,54.26,51a28.79,28.79,0,0,0,5.55-10.23V27.15Z"/><path class="cls-2" d="M16,6.6A28.8,28.8,0,0,1,30.56,2.93c6.58,0,12.21,1.65,16.73,4.92a23,23,0,0,1,8.48,11.71h2.71A24.46,24.46,0,0,0,48.74,5.19Q41.39,0,30.67,0A31.56,31.56,0,0,0,14.94,3.87,27.56,27.56,0,0,0,4.19,14.67,29.29,29.29,0,0,0,2,19.56H4.74A25.17,25.17,0,0,1,6,16.84,26,26,0,0,1,16,6.6Z"/><path class="cls-3" d="M18.22,9.14A25.24,25.24,0,0,1,30.51,6.19a24.49,24.49,0,0,1,14.13,4,18.52,18.52,0,0,1,7.15,9.42h3.35A22.31,22.31,0,0,0,47,8.34C42.53,5.15,37,3.53,30.56,3.53A28.3,28.3,0,0,0,16.28,7.12a25.35,25.35,0,0,0-9.74,10,23.63,23.63,0,0,0-1.16,2.43H8.71A21.46,21.46,0,0,1,18.22,9.14Z"/><path class="cls-4" d="M41.65,13.07A19.68,19.68,0,0,0,30.46,10a20.47,20.47,0,0,0-9.74,2.28,16.7,16.7,0,0,0-6.65,6.39c-.17.28-.33.58-.48.88h4.59a14,14,0,0,1,1.18-1.49,14.63,14.63,0,0,1,11.31-4.64A15.14,15.14,0,0,1,37.77,15a10.89,10.89,0,0,1,4.64,4.55H47A14.36,14.36,0,0,0,41.65,13.07Z"/><path class="cls-5" d="M13.71,18.49A17.19,17.19,0,0,1,20.52,12a20.81,20.81,0,0,1,9.94-2.34,20.1,20.1,0,0,1,11.43,3.14,14.64,14.64,0,0,1,5.52,6.8h3.86a18.11,18.11,0,0,0-6.92-9A23.92,23.92,0,0,0,30.51,6.67a24.77,24.77,0,0,0-12,2.89,20.83,20.83,0,0,0-8.23,8c-.35.62-.68,1.27-1,1.95h3.9C13.33,19.19,13.51,18.83,13.71,18.49Z"/></g></g></svg>