  <svg id="Lag_2" xmlns="http://www.w3.org/2000/svg" viewBox="0 0 126.06 98">
    <g id="Lag_1-2">
      <g>
        <path
          class="cls-2"
          d="M38.4,0h1.48c.32,.19,.66,.08,.99,.08,1.48,.02,2.94,.2,4.4,.44,4.93,.8,9.55,2.49,13.83,5.08,1.37,.83,2.71,1.71,3.95,2.75-.07,.16-.2,.26-.33,.36-.68,.51-1.31,1.09-1.92,1.67-.86,.81-1.69,1.64-2.48,2.53-.69,.79-1.37,1.58-2,2.42-1.69,2.22-3.14,4.59-4.33,7.12-1.06,2.26-1.91,4.59-2.51,7.01-.36,1.46-.67,2.92-.84,4.42-.08,.66-.13,1.33-.21,1.99-.11,.94-.08,1.89-.16,2.84-.05,.58,.04,1.18,.06,1.76,.04,1.24,.15,2.47,.31,3.71,.13,1,.3,2,.5,2.99,.31,1.52,.71,3.03,1.23,4.49,.71,2.04,1.54,4.03,2.59,5.93,.43,.77,.87,1.54,1.34,2.29,1.29,2.08,2.78,4,4.44,5.79,1.14,1.22,2.35,2.37,3.66,3.42,.23,.19,.56,.3,.64,.64-.03,.03-.06,.07-.1,.1-6.05,4.66-12.88,7.37-20.49,8.06-3.23,.29-6.45,.16-9.66-.36-3.45-.56-6.77-1.55-9.94-3.02-7.76-3.61-13.74-9.14-17.9-16.62C2.09,52.79,.51,47.32,.17,41.5c.04-.58-.02-1.15-.17-1.71v-1.38c.15-.31,.11-.65,.18-.97,0-.03-.05-.07-.08-.11-.05-.33,.07-.65,.08-.98,.11-1.9,.38-3.78,.79-5.64,1.58-7.21,4.93-13.49,10.06-18.79C16.46,6.3,23.02,2.65,30.65,.94c1.96-.44,3.93-.71,5.93-.83,.61-.01,1.22,.01,1.82-.11Z"
        />
        <path
          class="cls-3"
          d="M84.78,0h3.25c.43,.03,.85,.06,1.28,.08,1.92,.1,3.82,.35,5.7,.74,5.02,1.04,9.68,2.97,13.91,5.87,8.25,5.67,13.63,13.36,16.1,23.07,.65,2.55,1.04,5.14,1.04,7.78,0,.77,0,1.54,0,2.31,.04,2.41-.24,4.78-.74,7.13-1.53,7.24-4.83,13.56-9.92,18.92-8.3,8.75-20.1,13.11-32.11,11.92-2.85-.28-5.63-.87-8.35-1.77-4.31-1.43-8.24-3.56-11.81-6.35,.07-.07,.12-.16,.2-.21,.94-.71,1.81-1.5,2.67-2.31,.92-.87,1.76-1.8,2.59-2.76,1.07-1.23,2.05-2.52,2.93-3.87,1.07-1.65,2.05-3.35,2.86-5.15,.56-1.26,1.09-2.53,1.52-3.83,.55-1.66,1.01-3.35,1.32-5.08,.19-1.06,.36-2.12,.48-3.19,.05-.41,.04-.82,.1-1.22,.16-1.09,.01-2.19,.16-3.28,.04-.28-.07-.58-.08-.88,0-.67-.01-1.34-.08-2.01-.1-1.11-.23-2.21-.41-3.3-.27-1.66-.65-3.3-1.14-4.92-.85-2.79-2.01-5.44-3.44-7.97-.78-1.37-1.63-2.69-2.58-3.95-.78-1.05-1.62-2.06-2.5-3.03-1.1-1.22-2.28-2.35-3.52-3.43-.36-.31-.78-.55-1.05-.96,.08-.13,.21-.2,.33-.29,3.51-2.68,7.35-4.72,11.55-6.1,3.03-1,6.15-1.59,9.33-1.84,.13-.01,.3,.06,.39-.11Z"
        />
        <path
          class="cls-1"
          d="M114.02,98c-.23-.15-.5-.11-.75-.17-2.1-.52-3.65-2.31-3.88-4.47-.14-1.29,.03-2.52,.68-3.66,1.19-2.08,3.51-2.92,5.65-2.41,.79,.19,1.44,.62,1.97,1.24,.16-.09,.09-.23,.09-.35,0-1.51,0-3.02,0-4.53,0-.41,0-.41,.39-.41,.53,0,1.05,.01,1.58,0,.24,0,.33,.08,.3,.31,0,.08,0,.16,0,.25,0,4.48,0,8.96,0,13.44,0,.6,.05,.53-.52,.54-.48,0-.95-.01-1.43,0-.26,0-.35-.09-.33-.34,.02-.26,0-.52,0-.76-.08-.05-.11-.03-.15,0-.53,.65-1.23,1.02-2.03,1.2-.07,.02-.21-.05-.2,.12h-1.38Zm-2.28-5.49c0,.38,.03,.72,.12,1.06,.36,1.33,1.46,2.24,2.89,2.34,1.04,.07,2.35-.45,2.98-1.93,.28-.67,.33-1.37,.23-2.08-.2-1.45-1.34-2.57-2.72-2.68-1.64-.13-2.9,.69-3.34,2.2-.11,.36-.16,.74-.15,1.08Z"
        />
        <path
          class="cls-1"
          d="M29.34,98c0-.16-.14-.1-.21-.12-2.03-.48-3.39-1.7-3.92-3.72-.55-2.09-.2-4.02,1.38-5.59,1.33-1.31,2.97-1.68,4.77-1.29,.79,.17,1.44,.62,2.01,1.29,.1-.34,.06-.62,.05-.9,0-.26,.08-.34,.34-.33,.54,.02,1.08,.02,1.62,0,.27,0,.33,.1,.32,.35-.01,.44,0,.89,0,1.33,0,2.71,0,5.41,0,8.12,0,.11,0,.23,0,.34,.02,.22-.09,.28-.29,.28-.57,0-1.15,0-1.72,0-.19,0-.27-.06-.26-.26,0-.29,0-.58,0-.87-.07,0-.12,0-.13,.01-.55,.68-1.27,1.06-2.12,1.24-.06,.01-.18-.03-.16,.11h-1.67Zm1.05-8.79c-1.43,0-2.5,.79-2.94,2.16-.24,.74-.25,1.48-.04,2.23,.37,1.35,1.55,2.26,2.97,2.32,1.25,.05,2.43-.76,2.92-2.02,.26-.66,.3-1.33,.2-2.03-.25-1.59-1.49-2.66-3.1-2.66Z"
        />
        <path
          class="cls-1"
          d="M93.15,98c-.2-.13-.44-.09-.66-.14-2.06-.48-3.59-2.07-3.95-4.17-.3-1.75,0-3.38,1.18-4.75,1.35-1.57,3.1-2.06,5.11-1.64,.65,.14,1.22,.48,1.69,.95,.1,.1,.2,.2,.37,.37,0-.39,0-.68,0-.96,0-.2,.05-.29,.27-.29,.59,.01,1.18,0,1.77,0,.17,0,.24,.06,.23,.23,0,.1,0,.2,0,.3,0,3.12,0,6.23,0,9.35,0,.1,0,.2,0,.3,0,.16-.05,.25-.22,.24-.61,0-1.21,0-1.82,0-.17,0-.24-.07-.23-.23,0-.31,0-.61,0-.91-.14-.02-.17,.08-.22,.13-.57,.66-1.31,1.02-2.16,1.15-.13,.02-.27,0-.37,.09h-.98Zm.8-8.79c-1.44,0-2.55,.83-2.96,2.21-.18,.61-.21,1.22-.1,1.85,.24,1.44,1.37,2.48,2.9,2.63,1.04,.1,2.42-.42,3.05-1.96,.24-.59,.3-1.2,.24-1.83-.15-1.71-1.44-2.9-3.13-2.9Z"
        />
        <path
          class="cls-1"
          d="M53.37,98c-.04-.13-.15-.1-.24-.12-1.59-.35-2.25-1.38-2.42-2.83-.07-.59-.06-1.18-.06-1.77,0-1.07,0-2.13,0-3.2q0-.66-.68-.66c-.36,0-.72,0-1.08,0-.21,0-.29-.07-.29-.28,0-.57,0-1.14,0-1.79,.5,0,.96,0,1.43,0q.62,0,.62-.63c0-.74,0-1.48,0-2.21,0-.24,.07-.32,.31-.31,.64,.01,1.28,0,1.9,0,.11,.18,.07,.35,.07,.51,0,.77,.01,1.54,0,2.31,0,.25,.07,.34,.33,.33,.98-.01,1.97,0,2.95,0,.39,0,.39,0,.4,.41,0,.44-.01,.89,0,1.33,.01,.26-.09,.33-.34,.33-.98-.01-1.97,0-2.95,0-.41,0-.41,0-.41,.39,0,1.39,0,2.79,0,4.18,0,.16,.02,.33,.04,.49,.13,.93,.64,1.36,1.57,1.32,.53-.02,1.04-.12,1.52-.36,.1-.05,.21-.1,.35-.16,.21,.6,.41,1.19,.61,1.77,.06,.18-.08,.22-.2,.28-.56,.28-1.15,.46-1.77,.56-.13,.02-.27,0-.37,.09h-1.28Z"
        />
        <path
          class="cls-1"
          d="M82.71,98c.02-.1-.05-.09-.11-.11-.4-.07-.8-.16-1.18-.32-1.96-.81-3-2.3-3.23-4.38-.08-.77-.04-1.54,.18-2.29,.48-1.63,1.49-2.79,3.1-3.38,1.43-.52,2.89-.51,4.34-.07,.49,.15,.92,.41,1.34,.71,.17,.12,.19,.22,.08,.4-.32,.51-.62,1.04-.93,1.57-.24-.07-.41-.23-.6-.34-.89-.5-1.82-.73-2.83-.48-1.35,.33-2.28,1.39-2.41,2.77-.05,.54-.03,1.08,.12,1.61,.53,1.81,2.08,2.37,3.49,2.2,.68-.08,1.3-.33,1.87-.7,.11-.07,.21-.14,.32-.21,.05,.06,.09,.09,.11,.13,.33,.55,.65,1.1,.99,1.67-.61,.53-1.31,.86-2.09,1.05-.16,.04-.38-.02-.49,.18h-2.07Z"
        />
        <path class="cls-3" d="M.17,41.5c-.06,.01-.13-.02-.17,.07v-1.77c.15,.56,.21,1.13,.17,1.71Z" />
        <path class="cls-3" d="M36.58,.11c.01-.05,0-.09-.05-.11h1.87c-.6,.12-1.21,.09-1.82,.11Z" />
        <path class="cls-3" d="M42.74,97.94l.09,.06h-1.67c.07,.01,.13-.02,.16-.08,.47,0,.94,.02,1.42,.03Z" />
        <path class="cls-3" d="M64.37,97.94l.12,.06h-1.58c.07,0,.12-.02,.16-.08,.43,0,.86,.01,1.3,.02Z" />
        <path class="cls-4" d="M0,37.33s.06-.01,.09,0c.03,.04,.09,.08,.08,.11-.07,.32-.03,.66-.18,.97v-1.08Z" />
        <path class="cls-4" d="M40.86,0s0,.06,0,.08c-.33,0-.67,.1-.99-.08h.98Z" />
        <path
          class="cls-4"
          d="M63.04,8.35h.15c.26,.41,.69,.65,1.05,.96,1.24,1.07,2.42,2.21,3.52,3.43,.88,.97,1.72,1.98,2.5,3.03,.94,1.26,1.8,2.58,2.58,3.95,1.43,2.53,2.59,5.19,3.44,7.97,.49,1.61,.87,3.25,1.14,4.92,.18,1.1,.31,2.2,.41,3.3,.06,.67,.07,1.34,.08,2.01,0,.3,.12,.59,.08,.88-.14,1.09,0,2.19-.16,3.28-.06,.4-.06,.81-.1,1.22-.12,1.07-.29,2.13-.48,3.19-.31,1.73-.77,3.41-1.32,5.08-.43,1.31-.96,2.57-1.52,3.83-.81,1.8-1.79,3.5-2.86,5.15-.89,1.36-1.87,2.65-2.93,3.87-.83,.95-1.67,1.89-2.59,2.76-.86,.81-1.73,1.6-2.67,2.31-.08,.06-.13,.14-.2,.21l-.1,.02c-.09-.34-.41-.45-.64-.64-1.31-1.05-2.52-2.2-3.66-3.42-1.66-1.79-3.15-3.72-4.44-5.79-.47-.75-.91-1.51-1.34-2.29-1.05-1.9-1.88-3.89-2.59-5.93-.51-1.46-.92-2.97-1.23-4.49-.2-.99-.37-1.99-.5-2.99-.16-1.23-.26-2.46-.31-3.71-.02-.59-.11-1.18-.06-1.76,.08-.94,.06-1.89,.16-2.84,.07-.66,.13-1.33,.21-1.99,.17-1.49,.48-2.96,.84-4.42,.6-2.42,1.45-4.75,2.51-7.01,1.19-2.53,2.64-4.9,4.33-7.12,.63-.83,1.31-1.63,2-2.42,.78-.89,1.62-1.72,2.48-2.53,.61-.58,1.24-1.16,1.92-1.67,.13-.1,.26-.21,.33-.36Z"
        />
        <path
          class="cls-1"
          d="M15.11,88.95c.07-.06,.11-.09,.14-.13,1.31-1.64,3.04-1.96,4.96-1.48,1.53,.38,2.36,1.46,2.64,2.98,.07,.37,.09,.75,.09,1.13,0,1.97,0,3.94,0,5.91,0,.4,0,.41-.4,.41-.59,0-1.18,0-1.77,0-.35,0-.35,0-.35-.36,0-1.74,0-3.48,0-5.22,0-.41,0-.82-.11-1.22-.26-1.06-.95-1.62-2.03-1.65-1.55-.04-2.54,.88-2.6,2.45-.03,.8-.01,1.61-.01,2.41,0,1.07,0,2.13,0,3.2,0,.38,0,.39-.37,.39-.51,0-1.02,0-1.53,0-.37,0-.38,0-.38-.38,0-1.54,0-3.09,0-4.63,0-.47,.02-.95-.05-1.42-.24-1.7-1.36-2.22-2.86-1.97-1.03,.17-1.69,.95-1.81,2.05-.03,.29-.03,.59-.03,.88,0,1.66,0,3.31,0,4.97,0,.49,0,.49-.47,.49-.51,0-1.02,0-1.53,0-.21,0-.3-.07-.28-.28,0-.1,0-.2,0-.3,0-3.09,0-6.17,0-9.26,0-.03,0-.07,0-.1,0-.56-.01-.47,.47-.48,.51,0,1.02,0,1.53,0,.22,0,.29,.08,.28,.29-.01,.28,0,.56,0,.9,.36-.28,.59-.61,.93-.82,.36-.23,.75-.39,1.17-.49,.41-.09,.81-.09,1.22-.08,.41,0,.81,.09,1.2,.22,.41,.14,.78,.35,1.11,.62,.32,.27,.58,.58,.83,.95Z"
        />
        <path
          class="cls-1"
          d="M64.37,97.94c-.43,0-.87-.01-1.3-.02-2.61-.27-4.44-2.19-4.6-4.81-.06-1.01,.01-2.01,.43-2.94,.81-1.85,2.26-2.84,4.26-3.01,.62-.06,1.25-.03,1.85,.15,1.7,.49,2.71,1.65,3.18,3.31,.25,.88,.24,1.78,.23,2.69,0,.14-.06,.21-.2,.21-.13,0-.26,0-.39,0-2.18,0-4.36,0-6.55,0-.11,0-.23,0-.34,0-.16,0-.2,.09-.16,.22,.1,.35,.21,.69,.43,.99,.76,1.07,1.85,1.35,3.08,1.25,.95-.08,1.8-.46,2.6-1.04,.39,.48,.69,1,1.03,1.49,.11,.17-.06,.23-.15,.3-.72,.54-1.53,.88-2.41,1.07-.32,.07-.65,.1-.97,.14Zm1.83-6.37c-.13-1.57-1.17-2.53-2.69-2.46-1.46,.06-2.63,1.16-2.62,2.46h5.31Z"
        />
        <path
          class="cls-1"
          d="M42.74,97.94c-.47,0-.95-.02-1.42-.03-1.39-.1-2.93-.7-3.52-1.26,.01-.04,.02-.09,.04-.13,.32-.51,.64-1.03,.97-1.54,.19,0,.3,.14,.44,.21,1.24,.7,2.56,.98,3.98,.74,.39-.07,.77-.19,1.08-.45,.58-.48,.51-1.12-.15-1.46-.59-.3-1.24-.4-1.9-.45-.9-.08-1.78-.25-2.59-.69-.78-.42-1.31-1.05-1.43-1.94-.15-1.18,.21-2.17,1.17-2.91,.64-.5,1.39-.75,2.18-.83,1.4-.15,2.79-.05,4.12,.47,.35,.14,.82,.23,.95,.55,.13,.3-.25,.63-.39,.95-.1,.22-.24,.43-.34,.65-.09,.2-.18,.22-.38,.13-.65-.31-1.34-.55-2.05-.67-.65-.11-1.3-.14-1.95,.04-.26,.07-.49,.18-.68,.38-.46,.47-.36,1.09,.24,1.37,.3,.14,.62,.2,.95,.24,.68,.1,1.37,.11,2.04,.29,.53,.14,1.03,.32,1.5,.59,1.74,1.02,1.69,3.24,.62,4.38-.65,.69-1.46,1.03-2.36,1.23-.37,.08-.75,.11-1.12,.14Z"
        />
        <path
          class="cls-1"
          d="M73.25,88.5c.09-.11,.19-.22,.28-.33,.57-.62,1.26-.99,2.11-1.01,.47-.01,.95,0,1.43,.02,.33,.01,.34,.03,.25,.34-.14,.49-.29,.97-.43,1.46-.12,.41-.13,.41-.54,.33-.24-.04-.48-.09-.73-.11-1.23-.13-2.11,.51-2.35,1.72-.07,.35-.1,.71-.1,1.08,0,1.74,0,3.48,0,5.22,0,.16,0,.32,0,.53-.72,0-1.4,0-2.09,0-.11,0-.18-.05-.18-.18,0-.11,0-.23,0-.34,0-3.12,0-6.23,0-9.35,0-.08,0-.17,0-.25-.03-.22,.08-.28,.29-.27,.57,0,1.15,.01,1.72,0,.23,0,.27,.09,.27,.29-.01,.27,0,.55,0,.83l.08,.03Z"
        />
        <path
          class="cls-1"
          d="M104.46,88.47c.55-.6,1.13-1.06,1.9-1.24,.7-.16,1.4-.09,2.1-.03,.15,.01,.23,.08,.17,.26-.18,.56-.35,1.12-.51,1.69-.05,.19-.15,.22-.32,.19-.29-.05-.58-.11-.87-.14-1.25-.14-2.09,.48-2.36,1.7-.08,.36-.1,.71-.1,1.07,0,1.79,0,3.57,0,5.36,0,.41,0,.41-.39,.41-.54,0-1.08,0-1.62,0-.19,0-.27-.06-.26-.25,0-.1,0-.2,0-.29,0-3.1,0-6.2,0-9.29,0-.08,0-.16,0-.25-.03-.22,.04-.32,.29-.32,.56,.02,1.11,.01,1.67,0,.23,0,.33,.05,.31,.3-.02,.27,0,.55,0,.82Z"
        />
      </g>
    </g>
	<style>
	.cls-1 {
	  fill: #040404;
	}
	.cls-2 {
	  fill: #fe0002;
	}
	.cls-3 {
	  fill: #f90;
	}
	.cls-4 {
	  fill: #f40;
	}
	</style>
  </svg>