  <svg xmlns="http://www.w3.org/2000/svg" xmlns:xlink="http://www.w3.org/1999/xlink"  viewBox="0 0 74.653 105.411">
    <defs>
      <clipPath id="clip-path">
        <rect id="Rectangle_191" data-name="Rectangle 191" width="47.496" height="95.403" />
      </clipPath>
    </defs>
    <g id="Group_250" data-name="Group 250" transform="matrix(0.951, 0.309, -0.309, 0.951, 29.481, 0)">
      <g id="Group_247" data-name="Group 247" transform="translate(0 0)" clip-path="url(#clip-path)">
        <path
          id="Path_49"
          data-name="Path 49"
          d="M6.237,52.71H32.305L15.717,88.852a3.936,3.936,0,0,0,.263,3.8A5.476,5.476,0,0,0,19.4,95.192a7.143,7.143,0,0,0,2.106.211c2.633,0,5-1.268,5.793-3.17L47.051,49.54a3.951,3.951,0,0,0-.79-4.65,6.933,6.933,0,0,0-5-2.114H15.19L31.779,6.635a3.936,3.936,0,0,0-.263-3.8A5.476,5.476,0,0,0,28.092.294a7.3,7.3,0,0,0-4.74.211,5.2,5.2,0,0,0-3.16,2.748L.445,45.947a3.951,3.951,0,0,0,.79,4.65,5.864,5.864,0,0,0,5,2.114"
          transform="translate(0 -0.001)"
          fill="#8d8d8d"
        />
      </g>
    </g>
  </svg>