  <svg xmlns="http://www.w3.org/2000/svg" xmlns:xlink="http://www.w3.org/1999/xlink" viewBox="0 0 281.7 97.69">
    <defs>
      <clipPath id="clip-path" transform="translate(0 0)">
        <rect class="cls-1" width="281.7" height="97.6" />
      </clipPath>
      <clipPath id="clip-path-2" transform="translate(0 0)">
        <path
          class="cls-1"
          d="M143,0q53.4,0,90.2,25.9t48.6,71.7H265.2c-8.2-24.2-21.6-41.5-41.6-56.1C201,25.2,175.3,17.6,142.5,17.6c-27.1,0-49.2,5.5-70.3,17.7S35.5,62.5,23.2,84a142.08,142.08,0,0,0-6.5,13.6H0A140.3,140.3,0,0,1,10.8,73.2,137.78,137.78,0,0,1,64.5,19.3C87.4,6.4,113.5,0,143,0Z"
        />
      </clipPath>
      <clipPath id="clip-path-3" transform="translate(0 0)">
        <path
          class="cls-1"
          d="M142.41,17.59c33.1,0,60.1,7.7,81.8,24,19.1,14.3,33.2,32.7,40.9,56h-19.4c-7.1-19.4-18.3-33.4-34.8-45.3-19.1-12.9-41.2-18.8-68.8-19-22.9,0-42.5,4.9-60.4,14.6s-30.1,21.9-40.2,38.8A101,101,0,0,0,36,97.59H16.71c1.8-4.2,3.7-8.3,5.8-12.1,11.6-21.3,28.1-37.8,48.7-50S116,17.69,142.41,17.59Z"
        />
      </clipPath>
      <clipPath id="clip-path-4" transform="translate(0 0)">
        <path
          class="cls-1"
          d="M141.94,49.93c22,0,40.8,5.2,55.9,15.3a71.94,71.94,0,0,1,26.6,32.4h-22.8a54.4,54.4,0,0,0-23.1-22.7c-10-5.2-21.9-7.8-35.4-7.8q-35.25,0-56.4,23.1a69.37,69.37,0,0,0-5.9,7.5H57.94c.8-1.5,1.5-3,2.4-4.4a83.57,83.57,0,0,1,33.2-31.9C107.44,53.83,123.74,49.93,141.94,49.93Z"
        />
      </clipPath>
      <clipPath id="clip-path-5" transform="translate(0 0)">
        <path
          class="cls-1"
          d="M142.14,33.32c27.2,0,50.4,6.5,69.1,19.3a90.26,90.26,0,0,1,34.5,45h-21.4c-5.7-14-14.2-23.9-26.9-32.5-15.4-10.4-33.1-15.2-55.5-15.2-18.5,0-33.7,3.5-48.1,11.3s-24.8,17.2-33,31.1c-1,1.7-2.3,3.5-3.2,5.4H36a99.49,99.49,0,0,1,4.9-9.8A104.54,104.54,0,0,1,82,47.72C99.44,38.12,119.74,33.32,142.14,33.32Z"
        />
      </clipPath>
    </defs>
    <g id="Lag_2" data-name="Lag 2">
      <g id="Lag_1-2" data-name="Lag 1">
        <g class="cls-2">
          <g class="cls-3">
            <polygon class="cls-4" points="0 0 281.7 0 281.7 97.6 0 97.6 0 0" />
          </g>
        </g>
        <g class="cls-5">
          <polygon class="cls-6" points="16.71 17.59 265.12 17.59 265.12 97.69 16.71 97.69 16.71 17.59" />
        </g>
        <g class="cls-7">
          <polygon class="cls-8" points="57.64 49.93 224.34 49.93 224.34 97.63 57.64 97.63 57.64 49.93" />
        </g>
        <g class="cls-9">
          <polygon class="cls-10" points="36.04 33.32 245.74 33.32 245.74 97.62 36.04 97.62 36.04 33.32" />
        </g>
        <path
          id="rainbow_path"
          class="cls-1"
          d="M36,97.62A111.36,111.36,0,0,1,142.11,33.29c8.6-.7,39.68-2.18,68.8,19a102.52,102.52,0,0,1,34.83,45.33"
          transform="translate(0 0)"
        />
      </g>
    </g>
	<style>
	.cls-1 {
	  fill: none;
	}
	.cls-2 {
	  clip-path: url(#clip-path);
	}
	.cls-3 {
	  clip-path: url(#clip-path-2);
	}
	.cls-4 {
	  fill: #3ba32e;
	}
	.cls-5 {
	  clip-path: url(#clip-path-3);
	}
	.cls-6 {
	  fill: #7cb541;
	}
	.cls-7 {
	  clip-path: url(#clip-path-4);
	}
	.cls-8 {
	  fill: #c2d995;
	}
	.cls-9 {
	  clip-path: url(#clip-path-5);
	}
	.cls-10 {
	  fill: #a5c97b;
	}
	</style>
  </svg>