  <svg
    id="Lag_1"
    version="1.1"
    xmlns="http://www.w3.org/2000/svg"
    xmlns:xlink="http://www.w3.org/1999/xlink"
    x="0px"
    y="0px"
    viewBox="0 0 459 433"
    style="enable-background: new 0 0 459 433"
    xml:space="preserve"
  >
    <g id="Group_26" transform="translate(267.8) rotate(47)">
      <path
        id="Path_35"
        class="st0"
        d="M250.3,220.3c-6.8-6.3-12.8-13.4-17.8-21.2c0.1-1.3,0.9-3,3-5.9c5.4-7.5,19.3-1.4,24.1-13.5
		c6.6-16.6-9.8-24.4-22.4-33.1c14.3-5.3,32.5-11.8,33.5-17.8c2.9-16.7-39.4-1.3-44.6,0.1c-0.8,0.2-1.7,0.5-2.5,0.8
		c-4.4-15.2,6.8-25.6,18.8-37.1c7.7-7.4,50.9-32,31.3-43.5c-16.9-9.9-30.6,24-38.8,31c-18.8,16-23.5,5.9-39.4-1.9
		c-10-4.9-18.3-4.2-26.4-2.4c-7.4,0.1-15.7,2.2-23.6,4.1c-1.8-0.1-3.6-0.3-5.4-0.7c-28.3-5.8-8.6-46.1-31-52.2
		c-22.2-6-11.1,17.3-11,26.2c0.3,23.1-4.7,13.5-14.7,13.5c-2.5-4.5-6.5-25.7-10.2-27.6C64,34.5,62.5,52.7,62.8,56.8
		c0.4,6.2,5.4,9.6,7.7,15.9c-4.6,4.4-4.2,15.5-6.9,23.4c-5.3-1.1-9.8-2-10.2-1.8c-2.2,1.1-2.1,7.9-1.9,15.1
		c-5.2,2.5-10.9,2.4-18.4,0.6c1.2,3.4,2,6.9,2.6,10.4c-6.7-5.6-13.1-12.7-19.6-15.2c-20.2-7.6-25.1-0.2-15.3,15.8
		c4.1,6.6,11.1,7,15.3,14.4c4.9,8.8,3.1,13.6,1.2,19.8c-2-0.9-3.4,0.1-4.2,2.9c-0.1,0-0.2,0.2-0.2,0.7c0.4,0.2,0.6,0.3,0.7,0.2
		c0.8,0.2,1.7,0.3,2.5,0.2c0,0.2-0.1,0.4-0.1,0.6c-0.3,1.1-0.5,2.2-0.8,3.2c-10.7,7.3-28.1,15.1-30.5,23.3
		c-4.6,15.3,10.9,15.7,23.5,17.6c0.2,1.1,0.5,2.3,0.9,3.6c0.8,3,3.1,6.7,5.8,10.7c-3.6,11.7,2.8,19.7,13,26.3
		c-0.1,0.7-0.2,1.3-0.4,2c-2.1,6.4-26.4,15.8-31.9,19.6c-8.5,5.8-26.1,14.8-9.4,26.4c11.8,8.2,37.5-6.3,49.4-7.3
		c-2.6,9.9-27.2,21-14.7,33.1c13.3,12.9,29.2-25.7,35-25.4c7.5,0.4,8.6,17.6,18.6,20c3.5,0.8,18.7-8.4,23.5-7.7
		c23.8,3.4-3.1,31.5,12.8,45.4c4.7,4.1,1.4-53.5,26-42.6c5.4,2.4,3.8,40.9,15.7,33.3c9.9-6.4-3.9-35.9-0.8-43.1
		c5.7-13.1,15.2-7,18.8-30.3c-0.3,2.1,24.1,18.2,28.7,16.7c14.3-4.7-8.5-23.1-7.3-29.5c0.2-0.8,19.9-2.1,22.5-2.9
		c-2.9,1,5.3-11.5,4.8-11.2c1-0.8,2-1.4,3.2-1.9c14,3.4,45.6,26.2,54.9,7.5C284.7,231.6,258.3,227.5,250.3,220.3"
      />
      <path id="Path_36" class="st1" d="M106.9,5.8c3.8-0.8,4-1.1,3-1.1c8.1-4,18-16.2,5.2-19.8C104.5-18,97.6,0.4,106.9,5.8" />
      <path id="Path_37" class="st1" d="M-26.1,134.9C-43.2,123.2-34.9,158.5-26.1,134.9" />
      <path
        id="Path_38"
        class="st1"
        d="M33.1,57.8C38.9,65.2,50,83.2,59,86.6c2.6-9.5-13.9-72.6-31.3-57.8c0.3-0.3,0.3-0.3-0.6,0.6
		c-0.2,0.2-0.3,0.4-0.4,0.4C16.5,40.8,25.9,48.6,33.1,57.8"
      />
    </g>
	<style type="text/css">
	.st0 {
	  fill: #12133d;
	}
	.st1 {
	  fill: #12133d;
	}
	</style>
  </svg>