  <svg id="Lag_2" xmlns="http://www.w3.org/2000/svg" viewBox="0 0 182.51 59.27">
    <g id="Lag_1-2">
      <g id="mrpVPz.tif">
        <g>
          <path
            class="cls-1"
            d="M119.92,0c1,0,4.62,.6,6.82,1.14,1.98,.48,4.55,.38,5.74,1.76,1.24,1.44-.25,3.77-.48,5.72-.18,1.56-.62,3.1-.76,4.66-.12,1.38-.34,1.74-1.85,1.12-4.27-1.74-8.74-2.43-13.37-1.78-.13,.02-.27,.01-.39,.04-2.28,.5-4.73,.96-5.4,3.61-.69,2.74,1.45,4.02,3.37,5.19,2.81,1.71,5.75,3.2,8.55,4.94,3.82,2.38,7.09,5.28,8.23,9.89,1.84,7.39-1.75,14.94-9.19,18.91-10.24,5.46-20.78,4.92-31.43,1.31-.98-.33-1.16-.88-1-1.78,.68-3.74,1.33-7.49,2.01-11.32,5.6,3.18,11.51,4.31,17.78,3.56,1.25-.15,2.47-.44,3.61-.96,3.67-1.68,4.22-5.2,1.24-7.9-1.37-1.25-3-2.13-4.62-3.01-2.49-1.35-4.99-2.66-7.36-4.22-10.27-6.77-7.28-19.29-.97-24.32,4.15-3.3,8.94-4.93,14.09-5.78"
          />
          <path
            class="cls-3"
            d="M16.19,9.42C11.17,6.31,5.87,3.85,0,2.8V1.62c7.84,0,15.68,0,23.51,0,5.18,0,7.23,1.77,8.19,6.82,1.2,6.3,2.49,12.58,3.74,18.87,.15,.77,.4,1.52,.17,2.32-.75-.34-.84-1.12-1.18-1.73-4.35-7.86-10.36-14.09-18.25-18.48Z"
          />
          <path
            class="cls-1"
            d="M175.71,58.29c-1.72,0-3.43-.05-5.15,.02-1.09,.04-1.68-.2-1.84-1.43-.25-1.88-.8-3.72-1.11-5.59-.18-1.09-.58-1.54-1.78-1.53-5.35,.06-10.7,.07-16.04,0-1.15-.01-1.63,.42-1.96,1.42-.63,1.93-1.42,3.81-2.04,5.74-.33,1.03-.85,1.42-1.98,1.4-4.03-.08-8.06-.12-12.08,0-1.88,.06-1.84-.5-1.22-1.95,6.51-15.33,12.97-30.68,19.44-46.03,.66-1.57,1.32-3.15,2-4.71,1.06-2.44,2.93-3.96,5.59-4.08,4.08-.19,8.18-.1,12.27-.19,1.22-.02,1.15,.88,1.3,1.59,2.16,10.27,4.29,20.54,6.43,30.81,1.61,7.7,3.19,15.41,4.86,23.1,.27,1.22,.01,1.48-1.15,1.44-1.85-.07-3.7-.02-5.54-.02Zm-15.13-40.74h-.35c-2.38,6.47-4.76,12.94-7.16,19.41-.38,1.03,.03,1.24,.98,1.23,3.16-.03,6.32-.04,9.48,0,1.06,.02,1.37-.2,1.11-1.34-.71-3.05-1.27-6.14-1.91-9.22-.7-3.37-1.42-6.73-2.13-10.09Z"
          />
          <path
            class="cls-1"
            d="M16.19,9.42c7.89,4.39,13.9,10.62,18.25,18.48,.34,.61,.43,1.39,1.18,1.73l2.23,10.78c1.23-3.37,2.3-6.31,3.37-9.25,3.4-9.36,6.83-18.72,10.18-28.1,.44-1.23,.97-1.74,2.36-1.71,4.16,.1,8.32,.07,12.47,.02,1.3-.02,1.8,.11,1.18,1.6-7.53,17.96-15,35.94-22.47,53.93-.39,.95-.8,1.46-1.97,1.43-4.22-.08-8.45-.06-12.67-.01-1.01,.01-1.51-.25-1.79-1.31-4.06-15.67-8.17-31.33-12.26-47-.05-.19-.04-.39-.06-.59Z"
          />
          <path
            class="cls-1"
            d="M81.34,1.38c1.98,0,3.96,.05,5.94-.02,1.18-.04,1.39,.32,1.2,1.48-1.86,11.12-3.65,22.25-5.46,33.38-1.11,6.79-2.28,13.58-3.3,20.38-.2,1.35-.66,1.73-1.98,1.71-3.89-.08-7.78-.05-11.68-.01-1.03,0-1.56-.09-1.34-1.39,2.95-17.79,5.88-35.57,8.71-53.38,.29-1.85,1.01-2.37,2.78-2.19,1.7,.16,3.43,.04,5.14,.04Z"
          />
          <path
            class="cls-2"
            d="M160.59,17.55c.71,3.36,1.43,6.73,2.13,10.09,.64,3.07,1.2,6.16,1.91,9.22,.27,1.14-.05,1.35-1.11,1.34-3.16-.05-6.32-.04-9.48,0-.95,0-1.36-.2-.98-1.23,2.4-6.47,4.78-12.94,7.16-19.41h.35Z"
          />
        </g>
      </g>
    </g>
	<style>
	.cls-1 {
	  fill: #025bb0;
	}
	.cls-2 {
	  fill: #fcfdfd;
	}
	.cls-3 {
	  fill: #fda903;
	}
	</style>
  </svg>